<?xml version="1.0" encoding="UTF-8"?>
<!-- Generated by Pixelmator Pro 3.1 -->
<svg width="1600" height="1600" viewBox="0 0 1600 1600" xmlns="http://www.w3.org/2000/svg" xmlns:xlink="http://www.w3.org/1999/xlink">
    <g id="Group">
        <path id="Path" fill="#ffffff" stroke="none" d="M 0 0 L 1600 0 L 1600 1600 L 0 1600 Z"/>
        <g id="g1">
            <g id="g2">
                <path id="path1" fill="#000000" stroke="none" d="M 184.522598 657.534424 C 173.575272 657.534424 164 647.959167 164 637.011841 L 164 623.327881 C 164 612.380737 173.575272 602.805481 184.522598 602.805481 C 195.469757 602.805481 205.045029 612.380737 205.045029 623.327881 L 205.045029 637.011841 C 205.045029 647.959167 195.469757 657.534424 184.522598 657.534424 Z"/>
                <path id="path2" fill="#000000" stroke="none" d="M 266.605194 650.709229 C 261.131775 650.709229 255.658051 647.972595 251.556519 645.235779 C 250.191605 643.870911 250.191605 643.870911 248.819717 642.499023 C 247.454803 641.134094 247.454803 639.762207 247.454803 638.397461 C 247.454803 637.032593 246.090057 635.660706 246.090057 634.295776 L 246.090057 630.194214 L 246.090057 626.092529 C 246.090057 624.727783 246.090057 623.355896 247.454803 621.991028 C 247.454803 620.626099 248.819717 619.254211 248.819717 617.889465 C 250.184631 616.524536 250.184631 615.152649 251.556519 615.152649 C 257.029907 609.679077 263.868591 608.314331 270.706726 609.679077 C 272.071472 609.679077 273.443512 609.679077 274.808289 611.044006 C 276.173187 611.044006 277.545074 612.408936 278.909973 612.408936 C 280.274719 612.408936 281.646606 613.773682 281.646606 615.145569 C 283.011505 616.510437 283.011505 616.510437 284.383392 617.882324 C 284.383392 619.247253 285.748291 620.619141 285.748291 621.984009 C 285.748291 623.348816 287.11322 624.720642 287.11322 626.085571 L 287.11322 630.187134 L 287.11322 634.288818 C 287.11322 635.653564 287.11322 637.025574 285.748291 638.39032 C 285.748291 639.755249 284.383392 641.127136 284.383392 642.492065 C 283.018463 643.856812 283.018463 643.856812 281.646606 645.228699 C 277.552185 647.972595 272.078461 650.709351 266.604858 650.709351 Z"/>
                <path id="path3" fill="#000000" stroke="none" d="M 348.706024 746.478577 C 337.758881 746.478577 328.183594 736.90332 328.183594 725.955994 L 328.183594 534.417603 C 328.183594 523.470459 337.758881 513.895142 348.706024 513.895142 C 359.653351 513.895142 369.228638 523.470459 369.228638 534.417603 L 369.228638 725.955994 C 369.228638 736.90332 359.64624 746.478577 348.706024 746.478577 Z"/>
                <path id="path4" fill="#000000" stroke="none" d="M 512.87146 814.892822 C 501.924286 814.892822 492.34903 805.317566 492.34903 794.370361 L 492.34903 466.021362 C 492.34903 455.074097 501.924286 445.498779 512.87146 445.498779 C 523.818665 445.498779 533.393982 455.074097 533.393982 466.021362 L 533.393982 794.370361 C 533.393982 805.310547 523.818665 814.892822 512.87146 814.892822 Z"/>
                <path id="path5" fill="#000000" stroke="none" d="M 430.788849 883.289001 C 419.841522 883.289001 410.266235 873.713867 410.266235 862.766541 L 410.266235 397.607056 C 410.273376 386.65979 419.848663 377.077271 430.788849 377.077271 C 441.735992 377.077271 451.311279 386.652588 451.311279 397.599731 L 451.311279 862.75946 C 451.311279 873.706604 441.735992 883.289001 430.788849 883.289001 Z"/>
                <path id="path6" fill="#000000" stroke="none" d="M 594.954224 732.791992 C 584.00708 732.791992 574.431702 723.216675 574.431702 712.269531 L 574.431702 548.0896 C 574.431702 537.142456 584.00708 527.567139 594.954224 527.567139 C 605.901367 527.567139 615.476746 537.142456 615.476746 548.0896 L 615.476746 712.269531 C 615.476746 723.216675 605.901367 732.791992 594.954224 732.791992 Z"/>
                <path id="path7" fill="#000000" stroke="none" d="M 677.055115 684.907471 C 666.107971 684.907471 656.532593 675.332214 656.532593 664.384888 L 656.532593 595.979553 C 656.532593 585.03241 666.107971 575.457153 677.055115 575.457153 C 688.00238 575.457153 697.577576 585.03241 697.577576 595.979553 L 697.577576 664.384888 C 697.577576 675.325073 687.9953 684.907471 677.055115 684.907471 Z"/>
                <path id="path8" fill="#000000" stroke="none" d="M 759.137817 698.593872 C 748.190491 698.593872 738.615295 689.018616 738.615295 678.071472 L 738.615295 582.305725 C 738.615295 571.358643 748.190491 561.783325 759.137817 561.783325 C 770.084961 561.783325 779.660278 571.358643 779.660278 582.305725 L 779.660278 678.071472 C 779.653198 689.018616 770.07782 698.593872 759.137817 698.593872 Z"/>
                <path id="path9" fill="#000000" stroke="none" d="M 841.220398 719.10553 C 830.273254 719.10553 820.697998 709.530273 820.697998 698.58313 L 820.697998 561.772339 C 820.697998 550.825195 830.273254 541.25 841.220398 541.25 C 852.167725 541.25 861.74292 550.825195 861.74292 561.772339 L 861.74292 698.58313 C 861.74292 709.530273 852.167725 719.10553 841.220398 719.10553 Z"/>
                <path id="path10" fill="#000000" stroke="none" d="M 923.321228 678.064148 C 912.374023 678.064148 902.798767 668.488892 902.798767 657.541565 L 902.798767 602.813782 C 902.798767 591.866577 912.374023 582.291321 923.321228 582.291321 C 934.268433 582.291321 943.84375 591.866577 943.84375 602.813782 L 943.84375 657.541565 C 943.84375 668.488892 934.268433 678.064148 923.321228 678.064148 Z"/>
                <path id="path11" fill="#000000" stroke="none" d="M 1005.404114 671.220886 C 994.45697 671.220886 984.881592 661.645569 984.881592 650.698425 L 984.881592 609.653381 C 984.881592 598.706238 994.45697 589.130981 1005.404114 589.130981 C 1016.351318 589.130981 1025.926514 598.706238 1025.926514 609.653381 L 1025.926514 650.698425 C 1025.926514 661.645569 1016.351318 671.220886 1005.404114 671.220886 Z"/>
                <path id="path12" fill="#000000" stroke="none" d="M 1087.486816 650.709229 L 1083.385132 650.709229 C 1082.020264 650.709229 1080.648438 650.709229 1079.283569 649.344482 C 1077.918701 649.344482 1076.546753 647.979553 1075.181885 647.979553 C 1073.817139 646.614624 1072.44519 646.614624 1072.44519 645.242737 C 1071.080322 643.877869 1071.080322 643.877869 1069.708496 642.505981 C 1069.708496 641.141235 1068.343628 639.769348 1068.343628 638.404419 C 1068.343628 637.039551 1066.97876 635.667664 1066.97876 634.302917 L 1066.97876 630.201172 C 1066.97876 624.727783 1069.715454 619.254028 1072.452148 615.152344 C 1073.817139 613.787598 1073.817139 613.787598 1075.188965 612.41571 C 1076.553955 611.050781 1077.925659 611.050781 1079.290527 611.050781 C 1080.655396 611.050781 1082.027344 609.685913 1083.392212 609.685913 L 1091.602539 609.685913 C 1092.967529 609.685913 1094.339355 609.685913 1095.704224 611.050781 C 1097.069092 611.050781 1098.44104 612.41571 1099.805786 612.41571 C 1101.170776 612.41571 1102.54248 613.780457 1102.54248 615.152344 C 1106.644287 619.254028 1108.016113 624.727783 1108.016113 630.201172 L 1108.016113 634.302917 C 1108.016113 635.667664 1108.016113 637.039551 1106.651245 638.404419 C 1106.651245 639.769348 1105.286499 641.141235 1105.286499 642.505981 C 1103.921509 643.870911 1103.921509 643.870911 1102.549561 645.242737 C 1101.184692 646.607666 1101.184692 646.607666 1099.812744 647.979553 C 1098.447998 647.979553 1097.076172 649.344482 1095.711304 649.344482 C 1094.346436 649.344482 1092.974487 650.709229 1091.609619 650.709229 L 1087.486816 650.709229 Z"/>
                <path id="path13" fill="#000000" stroke="none" d="M 1169.569458 657.534424 C 1158.622314 657.534424 1149.046875 647.959167 1149.046875 637.011841 L 1149.046875 623.327881 C 1149.046875 612.380737 1158.622314 602.805481 1169.569458 602.805481 C 1180.516602 602.805481 1190.091919 612.380737 1190.091919 623.327881 L 1190.091919 637.011841 C 1190.091919 647.959167 1180.516602 657.534424 1169.569458 657.534424 Z"/>
                <path id="path14" fill="#000000" stroke="none" d="M 1251.670288 650.709229 C 1246.196777 650.709229 1240.723022 647.972595 1236.62146 645.235779 C 1235.256714 643.870911 1235.256714 643.870911 1233.884644 642.499023 C 1233.884644 641.134094 1232.519897 639.762207 1232.519897 638.397461 C 1232.519897 637.032593 1231.155029 635.660706 1231.155029 634.295776 L 1231.155029 630.194214 C 1231.155029 624.720642 1233.891846 619.246948 1236.628418 615.145386 C 1237.993286 613.780457 1239.365234 613.780457 1239.365234 612.408569 C 1240.730103 611.043823 1242.102051 611.043823 1243.466919 611.043823 C 1244.831787 611.043823 1246.203491 609.678955 1247.568481 609.678955 L 1255.778931 609.678955 C 1257.143677 609.678955 1258.515747 609.678955 1259.880493 611.043823 C 1261.245483 611.043823 1262.61731 612.408569 1263.982056 612.408569 C 1265.346924 612.408569 1266.718872 613.773499 1266.718872 615.145386 C 1270.820435 619.246948 1272.192383 624.720642 1272.192383 630.194214 L 1272.192383 634.295776 C 1272.192383 635.660706 1272.192383 637.032593 1270.827515 638.397461 C 1270.827515 639.762207 1269.462646 641.134094 1269.462646 642.499023 C 1268.0979 643.863953 1268.0979 643.863953 1266.72583 645.235779 C 1265.361084 646.600525 1265.361084 646.600525 1263.989136 647.972595 C 1262.624268 647.972595 1261.252441 649.337341 1259.887451 649.337341 C 1258.522705 649.337341 1257.150635 650.702271 1255.785889 650.702271 C 1254.406982 650.709351 1253.042236 650.709351 1251.670166 650.709351 Z"/>
                <path id="path15" fill="#000000" stroke="none" d="M 1333.75293 657.534424 C 1322.805786 657.534424 1313.230469 647.959167 1313.230469 637.011841 L 1313.230469 623.327881 C 1313.230469 612.380737 1322.805786 602.805481 1333.75293 602.805481 C 1344.700195 602.805481 1354.275513 612.380737 1354.275513 623.327881 L 1354.275513 637.011841 C 1354.275513 647.959167 1344.700195 657.534424 1333.75293 657.534424 Z"/>
                <path id="path16" fill="#000000" stroke="none" d="M 1415.835693 649.35144 C 1410.362061 649.35144 1404.88855 646.614807 1400.786987 643.877991 C 1399.422119 642.513123 1399.422119 642.513123 1398.050171 641.141235 C 1398.050171 639.776306 1396.685303 638.404419 1396.685303 638.404419 C 1396.685303 637.039551 1395.320435 635.667664 1395.320435 634.302917 L 1395.320435 630.201172 C 1395.320435 624.727783 1398.057129 619.254028 1400.793945 615.152527 C 1409.004272 606.941956 1422.681519 606.941956 1429.526611 615.152527 C 1433.628174 619.254028 1435 624.727783 1435 630.201172 L 1435 634.302917 C 1435 635.667664 1435 637.039673 1433.635132 638.404419 C 1433.635132 639.769348 1432.270386 641.141235 1432.270386 641.141235 C 1430.905396 642.506165 1430.905396 643.877991 1429.533569 643.877991 C 1426.775513 646.614807 1421.30896 649.35144 1415.835571 649.35144 Z"/>
            </g>
            <g id="g3">
                <path id="path17" fill="#000000" stroke="none" d="M 1414.456543 957.444153 C 1425.403687 957.444153 1434.979004 967.019409 1434.979004 977.966553 L 1434.979004 991.650513 C 1434.979004 1002.597839 1425.403687 1012.173035 1414.456543 1012.173035 C 1403.509155 1012.173035 1393.93396 1002.597839 1393.93396 991.650513 L 1393.93396 977.966553 C 1393.93396 967.02655 1403.509155 957.444153 1414.456543 957.444153 Z"/>
                <path id="path18" fill="#000000" stroke="none" d="M 1332.373779 964.287415 C 1335.110596 964.287415 1337.847168 964.287415 1340.584106 965.652283 C 1343.320923 967.01709 1346.057739 968.388977 1347.422607 969.753784 C 1351.52417 973.855408 1352.895996 979.329163 1352.895996 984.802551 L 1352.895996 988.904236 C 1352.895996 990.269104 1352.895996 991.641052 1351.531128 993.005798 C 1351.531128 994.370728 1350.166382 995.742615 1350.166382 997.107422 C 1348.801392 998.472229 1348.801392 999.844177 1347.429565 999.844177 C 1339.218994 1008.054565 1325.542114 1008.054565 1318.696899 999.844177 C 1317.332153 998.47937 1317.332153 998.47937 1315.960205 997.107422 C 1315.960205 995.742615 1314.595459 994.370605 1314.595459 993.005798 C 1314.595459 991.640869 1313.230469 990.269104 1313.230469 988.904236 L 1313.230469 984.802551 C 1313.230469 979.329163 1315.967285 973.855408 1318.704102 969.753784 C 1320.068848 968.388977 1322.805542 967.01709 1325.542358 965.652283 C 1326.900146 964.287415 1329.636963 964.287415 1332.373535 964.287415 Z"/>
                <path id="path19" fill="#000000" stroke="none" d="M 1250.272949 841.145203 C 1261.220093 841.145203 1270.795288 850.720581 1270.795288 861.667725 L 1270.795288 1107.934082 C 1270.795288 1118.881104 1261.220093 1128.456421 1250.272949 1128.456421 C 1239.325806 1128.456421 1229.750488 1118.881104 1229.750488 1107.934082 L 1229.750488 861.667725 C 1229.750488 850.720581 1239.332764 841.145203 1250.272949 841.145203 Z"/>
                <path id="path20" fill="#000000" stroke="none" d="M 1086.107544 813.790344 C 1097.054688 813.790344 1106.630005 823.365601 1106.630005 834.312866 L 1106.630005 1135.306885 C 1106.630005 1146.25415 1097.054688 1155.829468 1086.107544 1155.829468 C 1075.160278 1155.829468 1065.585083 1146.25415 1065.585083 1135.306885 L 1065.585083 834.312866 C 1065.585083 823.365601 1075.160278 813.790344 1086.107544 813.790344 Z"/>
                <path id="path21" fill="#000000" stroke="none" d="M 1168.190186 745.375916 C 1179.137451 745.375916 1188.712769 754.951294 1188.712769 765.898438 L 1188.712769 1203.703125 C 1188.712769 1214.650391 1179.137451 1224.225586 1168.190186 1224.225586 C 1157.243042 1224.225586 1147.667725 1214.650391 1147.667725 1203.703125 L 1147.667725 765.898438 C 1147.667725 754.951294 1157.243042 745.375916 1168.190186 745.375916 Z"/>
                <path id="path22" fill="#000000" stroke="none" d="M 1004.02478 882.186523 C 1014.971924 882.186523 1024.547241 891.76178 1024.547241 902.708923 L 1024.547241 1066.888916 C 1024.547241 1077.836182 1014.971924 1087.411377 1004.02478 1087.411377 C 993.077637 1087.411377 983.502258 1077.836182 983.502258 1066.888916 L 983.502258 902.708923 C 983.502258 891.76178 993.077637 882.186523 1004.02478 882.186523 Z"/>
                <path id="path23" fill="#000000" stroke="none" d="M 921.92395 930.071167 C 932.871094 930.071167 942.446472 939.646484 942.446472 950.593628 L 942.446472 1018.998962 C 942.446472 1029.946167 932.871094 1039.521484 921.92395 1039.521484 C 910.976685 1039.521484 901.401489 1029.946167 901.401489 1018.998962 L 901.401489 950.593628 C 901.401489 939.646484 910.983765 930.071167 921.92395 930.071167 Z"/>
                <path id="path24" fill="#000000" stroke="none" d="M 839.841187 930.071167 C 850.788513 930.071167 860.363708 939.646484 860.363708 950.593628 L 860.363708 1018.998962 C 860.363708 1029.946167 850.788513 1039.521484 839.841187 1039.521484 C 828.894043 1039.521484 819.318726 1029.946167 819.318726 1018.998962 L 819.318726 950.593628 C 819.325806 939.646484 828.901123 930.071167 839.841187 930.071167 Z"/>
                <path id="path25" fill="#000000" stroke="none" d="M 757.758545 909.559448 C 768.70575 909.559448 778.281006 919.134827 778.281006 930.08197 L 778.281006 1039.532227 C 778.281006 1050.479492 768.70575 1060.05481 757.758545 1060.05481 C 746.811279 1060.05481 737.236084 1050.479492 737.236084 1039.532227 L 737.236084 930.08197 C 737.236084 919.134827 746.811279 909.559448 757.758545 909.559448 Z"/>
                <path id="path26" fill="#000000" stroke="none" d="M 675.657654 936.91449 C 686.604858 936.91449 696.180176 946.489685 696.180176 957.43689 L 696.180176 1012.164734 C 696.180176 1023.111877 686.604858 1032.687256 675.657654 1032.687256 C 664.71051 1032.687256 655.135132 1023.111877 655.135132 1012.164734 L 655.135132 957.43689 C 655.135132 946.496704 664.71051 936.91449 675.657654 936.91449 Z"/>
                <path id="path27" fill="#000000" stroke="none" d="M 593.574951 943.757629 C 604.522095 943.757629 614.097473 953.332947 614.097473 964.280151 L 614.097473 1005.325073 C 614.097473 1016.272339 604.522095 1025.847656 593.574951 1025.847656 C 582.627747 1025.847656 573.052551 1016.272339 573.052551 1005.325073 L 573.052551 964.280151 C 573.052551 953.332947 582.627747 943.757629 593.574951 943.757629 Z"/>
                <path id="path28" fill="#000000" stroke="none" d="M 511.492188 964.287415 C 514.229004 964.287415 516.965759 964.287415 519.702759 965.652283 C 522.439514 967.01709 523.804321 968.388977 526.541077 969.753784 C 530.6427 973.855408 532.014648 979.329163 532.014648 984.802551 L 532.014648 988.904236 C 532.014648 990.269104 532.014648 991.641052 530.649719 993.005798 C 530.649719 994.370728 529.28479 995.742615 529.28479 997.107422 C 527.919861 998.472229 527.919861 999.844177 526.548096 999.844177 C 521.074524 1005.317688 514.235962 1006.682556 507.397858 1005.317688 C 506.033051 1005.317688 504.661072 1005.317688 503.296265 1003.952759 C 501.931335 1003.952759 500.55954 1002.587952 499.194702 1002.587952 C 497.829803 1001.223145 496.457916 1001.223145 496.457916 999.851196 C 495.093018 998.486328 495.093018 998.486328 493.721069 997.114441 C 493.721069 995.749634 492.356323 994.377686 492.356323 993.012817 C 492.356323 991.64801 490.991394 990.276062 490.991394 988.911255 L 490.991394 984.809692 C 490.991394 979.336121 493.72818 973.862366 496.464966 969.760864 C 497.829803 968.395996 500.566498 967.024048 503.303284 965.659241 C 506.025909 964.287231 508.755585 964.287231 511.492371 964.287231 Z"/>
                <path id="path29" fill="#000000" stroke="none" d="M 429.409515 957.444153 C 440.356659 957.444153 449.932098 967.019409 449.932098 977.966553 L 449.932098 991.650513 C 449.932098 1002.597839 440.356659 1012.173035 429.409515 1012.173035 C 418.462372 1012.173035 408.887024 1002.597839 408.887024 991.650513 L 408.887024 977.966553 C 408.887024 967.02655 418.462372 957.444153 429.409515 957.444153 Z"/>
                <path id="path30" fill="#000000" stroke="none" d="M 347.308624 964.287415 C 352.782227 964.287415 358.255951 967.024048 362.357483 969.760803 C 363.722229 971.125732 365.094269 973.862549 366.459015 976.599182 C 367.823944 979.335938 367.823944 982.072754 367.823944 984.809692 L 367.823944 988.911316 C 367.823944 990.276123 367.823944 991.64801 366.459015 993.012817 C 366.459015 994.377686 365.094269 995.749634 365.094269 997.114441 C 363.72937 998.47937 363.72937 999.851196 362.357483 999.851196 C 360.992584 1001.216187 360.992584 1001.216187 359.620697 1002.587952 C 358.255798 1002.587952 356.883911 1003.952759 355.519165 1003.952759 C 354.154266 1003.952759 352.782379 1005.317688 351.41745 1005.317688 L 343.20694 1005.317688 C 341.842194 1005.317688 340.470306 1005.317688 339.105408 1003.952759 C 337.740662 1003.952759 336.368622 1002.587952 335.003876 1002.587952 C 333.638947 1001.223145 332.267059 1001.223145 332.267059 999.851196 C 328.165527 995.749634 326.793488 990.276001 326.793488 984.802368 C 326.793488 979.328918 329.530273 973.855225 332.267059 969.75354 C 333.631989 968.388733 336.368622 967.016907 339.105408 965.651978 C 341.835236 964.28717 344.571838 964.28717 347.308624 964.28717 Z"/>
                <path id="path31" fill="#000000" stroke="none" d="M 265.226044 957.444153 C 276.173187 957.444153 285.748474 967.019409 285.748474 977.966553 L 285.748474 991.650513 C 285.748474 1002.597839 276.173187 1012.173035 265.226044 1012.173035 C 254.278717 1012.173035 244.70343 1002.597839 244.70343 991.650513 L 244.70343 977.966553 C 244.70343 967.02655 254.278717 957.444153 265.226044 957.444153 Z"/>
                <path id="path32" fill="#000000" stroke="none" d="M 183.143265 964.287415 C 188.616837 964.287415 194.090424 965.652283 198.191956 969.760803 C 202.293655 973.862549 203.665527 979.336182 203.665527 984.809692 L 203.665527 988.911316 C 203.665527 990.276123 203.665527 991.64801 202.300613 993.012817 C 202.300613 994.377686 200.935699 995.749634 200.935699 997.114441 C 199.570953 998.47937 199.570953 999.851196 198.199081 999.851196 C 189.988556 1008.061646 176.311569 1008.061646 169.466446 999.851196 C 168.101532 998.486328 168.101532 998.486328 166.729828 997.114441 C 166.729828 995.749634 165.364746 994.377686 165.364746 993.012817 C 165.364746 991.64801 164 990.276123 164 988.911316 L 164 984.809692 C 164 979.336182 166.736786 973.862549 169.473572 969.760803 C 172.203232 967.024048 177.669693 964.287415 183.143265 964.287415 Z"/>
            </g>
        </g>
    </g>
</svg>
