<?xml version="1.0" encoding="UTF-8"?>
<!-- Generated by Pixelmator Pro 3.1 -->
<svg width="1600" height="1600" viewBox="0 0 1600 1600" xmlns="http://www.w3.org/2000/svg" xmlns:xlink="http://www.w3.org/1999/xlink">
    <g id="Group">
        <path id="Path" fill="#f2104b" stroke="none" d="M 0 0 L 1600 0 L 1600 1600 L 0 1600 Z"/>
        <path id="path1" fill="#03ddee" fill-rule="evenodd" stroke="none" d="M 1016.319519 460.985352 C 1206.176025 460.985352 1355.819946 608.830505 1368.778931 788.758057 L 1406.960938 782.848145 L 1364.759766 891.760132 C 1340.346436 861.43689 1315.932861 831.105347 1291.5177 800.732056 L 1335.559204 793.917542 C 1325.01123 626.76947 1186.101074 494.441772 1016.300781 494.441772 C 949.638184 494.441772 887.710388 514.828735 836.469238 549.750122 C 828.806824 541.427246 820.712341 533.471436 812.243652 525.858398 C 869.866394 485.028198 940.264343 460.996704 1016.292358 460.996704 Z M 906.886047 891.950012 C 857.731628 1075.327026 676.19104 1181.638672 499.063995 1147.582153 L 494.898499 1186 L 400.608856 1117.021118 C 436.230438 1101.313232 471.862427 1085.556396 507.484009 1069.849121 L 502.707153 1114.176758 C 666.879333 1147.198242 830.625916 1047.326294 874.57373 883.293945 C 915.070068 732.228943 840.321106 577.432678 704.303894 512.178589 L 742.200012 494.39209 C 877.507751 572.312866 949.232849 733.976807 906.893921 891.988708 Z M 1030.225952 1185.895752 C 935.888306 1188.072144 850.582214 1153.533691 786.571899 1096.146851 C 795.652832 1089.381104 804.407593 1082.240234 812.779968 1074.66748 C 870.736511 1124.767212 946.766785 1154.389282 1029.410034 1152.448486 C 1180.758911 1148.951538 1305.096313 1040.838501 1335 898.861389 L 1361.304077 931.509277 C 1319.388672 1075.473145 1188.148193 1182.216675 1030.213501 1185.9104 Z M 203.083633 717.848877 C 247.933014 533.338745 426.954803 422.901489 604.791382 452.805176 L 608.052002 414.247559 L 703.906799 480.999878 C 668.658813 497.555664 633.412842 514.119385 598.164795 530.625854 L 601.947144 486.200195 C 437.017395 457.010132 275.635162 560.665283 235.568771 725.701477 C 199.799072 872.786865 272.045868 1020.878296 401.443848 1086.487061 L 363.124054 1103.377197 C 234.867599 1025.644165 165.792648 871.221375 203.069061 717.800354 Z M 742.144165 1048.22998 C 702.447083 996.663147 676.712769 934.067749 670.279114 866.459839 L 632.19519 873.274414 L 671.844238 763.415161 C 696.967102 793.177124 722.042053 822.930603 747.164978 852.690369 L 703.308899 860.540283 C 708.746033 923.177429 732.125427 980.474487 768.218567 1027.450195 C 759.936523 1034.827515 751.230957 1041.788818 742.150391 1048.220337 Z M 786.757751 591.535156 C 743.897034 635.627136 713.711548 692.068665 701.883667 754.997986 L 674.91803 723.019897 C 690.675049 664.019958 721.284546 611.082214 762.53833 568.499146 C 771.105652 575.737793 779.191956 583.449097 786.805603 591.543579 Z"/>
    </g>
</svg>
